<svg width="58" height="70" viewBox="0 0 58 70" fill="none" xmlns="http://www.w3.org/2000/svg">
<g id="Group">
<path id="Vector" d="M42.471 0H42.9689C43.3685 4.93655 41.4843 8.62513 39.1943 11.2963C36.9473 13.949 33.8704 16.5218 28.8939 16.1314C28.562 11.2655 30.4493 7.85052 32.7362 5.18553C34.8571 2.70188 38.7455 0.49181 42.471 0ZM57.5357 51.3819V51.5202C56.1372 55.7559 54.1423 59.3861 51.7078 62.755C49.4854 65.8135 46.762 69.9293 41.8992 69.9293C37.6973 69.9293 34.9063 67.2274 30.5999 67.1536C26.0445 67.0799 23.5393 69.4129 19.3743 70H17.9542C14.8958 69.5574 12.4275 67.1352 10.6293 64.9528C5.32699 58.5039 1.22959 50.1739 0.467285 39.5139V36.3817C0.790036 28.7525 4.49706 22.5495 9.42438 19.5433C12.0248 17.9449 15.5997 16.5832 19.5803 17.1918C21.2862 17.4562 23.0291 18.0402 24.5568 18.6181C26.0045 19.1745 27.815 20.1612 29.5302 20.1089C30.6921 20.0751 31.8479 19.4695 33.019 19.0423C36.4494 17.8035 39.8121 16.3834 44.2446 17.0505C49.5715 17.8558 53.3523 20.2226 55.6884 23.8743C51.1822 26.7422 47.6196 31.064 48.2282 38.4442C48.7692 45.1482 52.6668 49.0704 57.5357 51.3819Z" fill="white"/>
</g>
</svg>
