<svg width="64" height="70" viewBox="0 0 64 70" fill="none" xmlns="http://www.w3.org/2000/svg">
<g id="Group">
<path id="Vector" d="M60.44 30.01L9.26135 0.755334C8.39429 0.260005 7.41292 -0.000359255 6.41435 3.72045e-07C6.39435 3.72045e-07 6.37468 0.00266704 6.35502 0.00266704C6.06022 0.00641349 5.76614 0.0327125 5.47535 0.0813337C5.43835 0.087667 5.40102 0.089667 5.36402 0.096667L5.36602 0.0993337C4.71885 0.218072 4.09697 0.447427 3.52768 0.777334C2.65733 1.28229 1.93488 2.00701 1.43266 2.87894C0.930443 3.75088 0.666073 4.73944 0.666016 5.74567V64.2547C0.666073 65.2609 0.930443 66.2495 1.43266 67.1214C1.93488 67.9933 2.65733 68.7181 3.52768 69.223C4.09681 69.5531 4.71859 69.7825 5.36568 69.9013L5.36402 69.9037C5.39735 69.91 5.43102 69.912 5.46402 69.9173C5.57368 69.936 5.68368 69.9513 5.79402 69.963C5.84935 69.969 5.90435 69.975 5.95968 69.9793C6.08935 69.9897 6.21868 69.9957 6.34868 69.9973C6.37068 69.9977 6.39235 70.0003 6.41435 70.0003C7.39668 70.0003 8.37902 69.749 9.26135 69.245L60.44 39.99C61.3191 39.4875 62.0498 38.7615 62.5579 37.8857C63.0661 37.0099 63.3337 36.0153 63.3337 35.0027V34.9973C63.3336 33.9848 63.066 32.9902 62.5578 32.1144C62.0497 31.2386 61.3191 30.5126 60.44 30.01ZM40.2007 24.2003L35.112 30.876L22.1653 13.8907L40.2007 24.2003ZM57.9587 35.649L22.1653 56.1093L44.5767 26.7073L57.9584 34.3563C58.0722 34.4215 58.1669 34.5156 58.2328 34.629C58.2988 34.7424 58.3337 34.8712 58.334 35.0023C58.3337 35.1336 58.2989 35.2624 58.233 35.376C58.1671 35.4895 58.0725 35.5836 57.9587 35.649Z" fill="white"/>
</g>
</svg>
